<svg width="38" height="29" viewBox="0 0 38 29" fill="none" xmlns="http://www.w3.org/2000/svg">
<path d="M32.1688 2.43159C29.7463 1.35833 27.1498 0.565045 24.4344 0.113964C24.4102 0.109403 24.3852 0.112342 24.3628 0.122375C24.3404 0.132407 24.3217 0.149037 24.3093 0.16996C23.9768 0.743922 23.6064 1.4921 23.3467 2.08317C20.4669 1.66045 17.5391 1.66045 14.6592 2.08317C14.37 1.42811 14.0439 0.789379 13.6823 0.16996C13.6701 0.148779 13.6515 0.131773 13.6292 0.121212C13.6068 0.110652 13.5817 0.107037 13.5572 0.110853C10.8435 0.561934 8.24689 1.35522 5.82288 2.43003C5.80202 2.43863 5.78434 2.45328 5.77221 2.47203C0.845019 9.58823 -0.505525 16.5287 0.157873 23.382C0.159719 23.3988 0.165022 23.415 0.17346 23.4297C0.181898 23.4444 0.193294 23.4573 0.206955 23.4675C3.08283 25.5245 6.29048 27.0915 9.6956 28.1028C9.71933 28.11 9.74472 28.11 9.76845 28.1027C9.79217 28.0955 9.81313 28.0814 9.82859 28.0623C10.5613 27.0996 11.2106 26.0783 11.7697 25.009C11.7775 24.9944 11.7819 24.9783 11.7828 24.9618C11.7837 24.9454 11.781 24.9289 11.7748 24.9136C11.7687 24.8982 11.7592 24.8844 11.7471 24.8729C11.7351 24.8615 11.7206 24.8527 11.7048 24.8472C10.682 24.4688 9.69098 24.0122 8.74087 23.4815C8.7238 23.472 8.70942 23.4584 8.69901 23.442C8.6886 23.4256 8.68249 23.4069 8.68124 23.3877C8.67998 23.3684 8.68362 23.3491 8.69181 23.3316C8.70001 23.314 8.71252 23.2987 8.72821 23.2871C8.9277 23.1425 9.1272 22.9916 9.31719 22.8407C9.33429 22.8271 9.35489 22.8185 9.3767 22.8157C9.3985 22.813 9.42065 22.8162 9.44069 22.8251C15.6583 25.569 22.392 25.569 28.5367 22.8251C28.5568 22.8157 28.5792 22.812 28.6013 22.8145C28.6234 22.817 28.6444 22.8255 28.6618 22.8391C28.8518 22.9916 29.0497 23.1425 29.2508 23.2871C29.2666 23.2985 29.2793 23.3136 29.2878 23.331C29.2963 23.3484 29.3002 23.3676 29.2992 23.3868C29.2983 23.4061 29.2925 23.4248 29.2824 23.4414C29.2723 23.4579 29.2582 23.4717 29.2413 23.4815C28.2945 24.0166 27.3097 24.4693 26.2758 24.8457C26.2599 24.8513 26.2454 24.8603 26.2334 24.8719C26.2213 24.8834 26.2118 24.8974 26.2057 24.9129C26.1995 24.9284 26.1968 24.9449 26.1977 24.9615C26.1986 24.9781 26.2031 24.9943 26.2109 25.009C26.7809 26.0776 27.4332 27.0949 28.1504 28.0608C28.1653 28.0806 28.1861 28.0954 28.2099 28.1032C28.2337 28.111 28.2594 28.1114 28.2834 28.1043C31.6943 27.0959 34.9072 25.5282 37.7863 23.4675C37.8003 23.4579 37.8121 23.4454 37.8209 23.4309C37.8296 23.4164 37.8351 23.4003 37.8369 23.3835C38.6286 15.4601 36.5102 8.57563 32.2179 2.47514C32.2073 2.45532 32.1899 2.43986 32.1688 2.43159ZM12.6991 19.2087C10.8276 19.2087 9.28394 17.5459 9.28394 15.5067C9.28394 13.466 10.7976 11.8048 12.6991 11.8048C14.6149 11.8048 16.1443 13.48 16.1142 15.5067C16.1142 17.5475 14.6006 19.2087 12.6991 19.2087ZM25.3258 19.2087C23.4528 19.2087 21.9107 17.5459 21.9107 15.5067C21.9107 13.466 23.4227 11.8048 25.3258 11.8048C27.2416 11.8048 28.771 13.48 28.741 15.5067C28.741 17.5475 27.2432 19.2087 25.3258 19.2087Z" fill="white"/>
</svg>
