<svg width="40" height="41" viewBox="0 0 40 41" fill="none" xmlns="http://www.w3.org/2000/svg">
<path d="M20.0004 0C14.5634 0 13.8859 0.026396 11.7581 0.116897C9.62157 0.222481 8.17639 0.555574 6.90123 1.05333C5.56664 1.55991 4.35799 2.35304 3.35954 3.37743C2.33784 4.37897 1.54856 5.59487 1.048 6.93838C0.552935 8.22048 0.221644 9.67352 0.116631 11.8216C0.0203687 13.9622 0.000366211 14.6423 0.000366211 20.1087C0.000366211 25.5752 0.0266195 26.2565 0.116631 28.3958C0.221644 30.5377 0.552935 31.997 1.048 33.2791C1.55184 34.6209 2.34068 35.8362 3.35954 36.8401C4.35566 37.8673 5.56498 38.6609 6.90123 39.1642C8.17639 39.6556 9.62782 39.995 11.7581 40.1006C13.8871 40.1974 14.5634 40.2175 20.0004 40.2175C25.4373 40.2175 26.1149 40.1911 28.2426 40.1006C30.3729 39.995 31.8243 39.6544 33.0995 39.1642C34.4341 38.6576 35.6427 37.8644 36.6412 36.8401C37.6642 35.8396 38.4537 34.6234 38.9527 33.2791C39.4415 31.997 39.7791 30.5377 39.8841 28.3958C39.9804 26.2552 40.0004 25.5752 40.0004 20.1087C40.0004 14.6423 39.9741 13.961 39.8841 11.8216C39.7791 9.6798 39.4403 8.21294 38.9527 6.93838C38.4489 5.59654 37.6601 4.38132 36.6412 3.37743C35.6462 2.34886 34.4365 1.55508 33.0995 1.05333C31.8243 0.555574 30.3729 0.222481 28.2426 0.116897C26.1136 0.0201113 25.4373 0 20.0004 0ZM20.0004 3.62003C25.3398 3.62003 25.9774 3.64642 28.0876 3.73692C30.0341 3.82868 31.0943 4.15549 31.7981 4.43202C32.6682 4.75496 33.4558 5.26896 34.1034 5.93659C34.7663 6.58496 35.2756 7.37498 35.5936 8.24813C35.8686 8.95579 36.1936 10.0217 36.2849 11.9788C36.3749 14.1005 36.4012 14.7428 36.4012 20.11C36.4012 25.4772 36.3749 26.1195 36.2774 28.2412C36.1724 30.1983 35.8474 31.2642 35.5736 31.9719C35.1948 32.9158 34.7722 33.5757 34.0746 34.2897C33.4248 34.9531 32.6378 35.4647 31.7693 35.788C31.0743 36.0645 29.9991 36.3913 28.0451 36.4831C25.9236 36.5736 25.2985 36.6 19.9454 36.6C14.5922 36.6 13.9684 36.5736 11.8443 36.4755C9.89785 36.37 8.82397 36.0431 8.12013 35.7679C7.17001 35.387 6.51868 34.9622 5.82109 34.2608C5.11726 33.5531 4.6697 32.8794 4.32466 31.943C4.04462 31.2441 3.72458 30.1631 3.62082 28.1985C3.54956 26.0906 3.51581 25.437 3.51581 20.0798C3.51581 14.7252 3.54956 14.0703 3.62082 11.936C3.72458 9.97141 4.04462 8.89295 4.32466 8.19157C4.6697 7.23503 5.11851 6.58141 5.82109 5.87374C6.51743 5.17362 7.17001 4.72112 8.12013 4.36666C8.82397 4.09138 9.8716 3.76458 11.8256 3.66653C13.9471 3.58986 14.5722 3.56221 19.9179 3.56221L20.0004 3.62003ZM20.0004 9.7879C18.6519 9.7874 17.3165 10.0541 16.0706 10.5727C14.8246 11.0913 13.6926 11.8517 12.739 12.8104C11.7855 13.7691 11.0292 14.9074 10.5134 16.1601C9.99758 17.4128 9.73234 18.7554 9.73283 20.1113C9.73234 21.4671 9.99758 22.8097 10.5134 24.0624C11.0292 25.3151 11.7855 26.4534 12.739 27.4121C13.6926 28.3708 14.8246 29.1312 16.0706 29.6498C17.3165 30.1684 18.6519 30.4351 20.0004 30.4346C21.3489 30.4351 22.6842 30.1684 23.9302 29.6498C25.1761 29.1312 26.3082 28.3708 27.2617 27.4121C28.2152 26.4534 28.9715 25.3151 29.4873 24.0624C30.0032 22.8097 30.2684 21.4671 30.2679 20.1113C30.2684 18.7554 30.0032 17.4128 29.4873 16.1601C28.9715 14.9074 28.2152 13.7691 27.2617 12.8104C26.3082 11.8517 25.1761 11.0913 23.9302 10.5727C22.6842 10.0541 21.3489 9.7874 20.0004 9.7879ZM20.0004 26.8146C16.3149 26.8146 13.3333 23.8168 13.3333 20.1113C13.3333 16.4058 16.3149 13.4079 20.0004 13.4079C23.6858 13.4079 26.6675 16.4058 26.6675 20.1113C26.6675 23.8168 23.6858 26.8146 20.0004 26.8146Z" fill="white"/>
<path d="M33.9491 12.5703C33.9485 13.2277 33.6883 13.858 33.2257 14.3226C32.7631 14.7872 32.136 15.0482 31.4821 15.0482C31.1588 15.0482 30.8387 14.9842 30.54 14.8598C30.2413 14.7354 29.9699 14.553 29.7413 14.3232C29.5127 14.0933 29.3314 13.8205 29.2077 13.5202C29.0839 13.2198 29.0203 12.898 29.0203 12.5729C29.0203 12.2479 29.0839 11.926 29.2077 11.6257C29.3314 11.3254 29.5127 11.0525 29.7413 10.8226C29.9699 10.5928 30.2413 10.4105 30.54 10.2861C30.8387 10.1617 31.1588 10.0977 31.4821 10.0977C32.8382 10.0977 33.9491 11.2069 33.9491 12.5703Z" fill="white"/>
</svg>
