<svg width="40" height="41" viewBox="0 0 40 41" fill="none" xmlns="http://www.w3.org/2000/svg">
<path d="M30.0001 22.3685V29.7625H25.7141V22.8625C25.7141 21.1305 25.0941 19.9485 23.5421 19.9485C22.3581 19.9485 21.6521 20.7445 21.3421 21.5165C21.2301 21.7925 21.2001 22.1765 21.2001 22.5605V29.7625H16.9121C16.9121 29.7625 16.9701 18.0785 16.9121 16.8685H21.2001V18.6945L21.1721 18.7365H21.2001V18.6965C21.7701 17.8165 22.7861 16.5645 25.0641 16.5645C27.8841 16.5645 30.0001 18.4085 30.0001 22.3685Z" fill="white"/>
<path d="M12.426 10.6504C10.96 10.6504 10 11.6144 10 12.8784C10 14.1184 10.932 15.1084 12.37 15.1084H12.398C13.894 15.1084 14.824 14.1164 14.824 12.8784C14.796 11.6144 13.894 10.6504 12.426 10.6504ZM10.254 29.7624H14.542V16.8684H10.254V29.7624Z" fill="white"/>
<path d="M20 36.1094C24.2435 36.1094 28.3131 34.4237 31.3137 31.4231C34.3143 28.4225 36 24.3528 36 20.1094C36 15.8659 34.3143 11.7962 31.3137 8.79567C28.3131 5.79508 24.2435 4.10938 20 4.10938C15.7565 4.10938 11.6869 5.79508 8.68629 8.79567C5.68571 11.7962 4 15.8659 4 20.1094C4 24.3528 5.68571 28.4225 8.68629 31.4231C11.6869 34.4237 15.7565 36.1094 20 36.1094ZM20 40.1094C8.954 40.1094 0 31.1554 0 20.1094C0 9.06338 8.954 0.109375 20 0.109375C31.046 0.109375 40 9.06338 40 20.1094C40 31.1554 31.046 40.1094 20 40.1094Z" fill="white"/>
</svg>
