<svg width="30" height="36" viewBox="0 0 30 36" fill="none" xmlns="http://www.w3.org/2000/svg">
<g clip-path="url(#clip0_2439_35377)">
<path d="M27.2 32H4.8C4.05739 32 3.3452 31.6576 2.8201 31.0481C2.295 30.4386 2 29.612 2 28.75V9.10863C2.03141 8.27141 2.34021 7.48063 2.86195 6.90139C3.38369 6.32214 4.07802 5.99921 4.8 6H27.2C27.9426 6 28.6548 6.34241 29.1799 6.9519C29.705 7.5614 30 8.38805 30 9.25V28.75C30 29.612 29.705 30.4386 29.1799 31.0481C28.6548 31.6576 27.9426 32 27.2 32ZM4.8 12.2855V28.75H27.2V12.2855L16 20.95L4.8 12.2855ZM5.92 9.25L16 17.05L26.08 9.25H5.92Z" fill="#642CCA"/>
</g>
<defs>
<clipPath id="clip0_2439_35377">
<rect width="29.7373" height="35.8597" fill="white"/>
</clipPath>
</defs>
</svg>
