<svg width="34" height="33" viewBox="0 0 34 33" fill="none" xmlns="http://www.w3.org/2000/svg">
<path d="M14.6615 7.79753L9.65418 2.13562C9.07692 1.48316 8.01862 1.48606 7.34811 2.14432L3.23034 6.18522C2.00478 7.3872 1.65399 9.17205 2.36298 10.6031C6.59859 19.1938 13.6714 26.1318 22.4352 30.2929C23.8947 30.9874 25.7152 30.6438 26.9408 29.4418L31.097 25.3632C31.7705 24.7035 31.772 23.661 31.1 23.0956L25.2978 18.2166C24.691 17.7062 23.7481 17.7729 23.1398 18.3703L21.1209 20.3509C21.0175 20.457 20.8815 20.5269 20.7336 20.55C20.5857 20.573 20.4342 20.5479 20.3023 20.4785C17.0023 18.6169 14.2648 15.9319 12.3688 12.6968C12.2978 12.5674 12.272 12.4187 12.2956 12.2736C12.3191 12.1285 12.3906 11.995 12.499 11.8935L14.512 9.9202C15.1218 9.31994 15.1884 8.39199 14.6615 7.79608V7.79753Z" stroke="#642CCA" stroke-width="2.95187" stroke-linecap="round" stroke-linejoin="round"/>
</svg>
