<svg width="24" height="34" viewBox="0 0 24 34" fill="none" xmlns="http://www.w3.org/2000/svg">
<path d="M12.0269 18.4825C14.1035 18.4825 15.7869 16.5002 15.7869 14.0548C15.7869 11.6093 14.1035 9.62695 12.0269 9.62695C9.95028 9.62695 8.26685 11.6093 8.26685 14.0548C8.26685 16.5002 9.95028 18.4825 12.0269 18.4825Z" stroke="#642CCA" stroke-width="2.95187" stroke-linecap="round" stroke-linejoin="round"/>
<path d="M12.0268 2.24805C9.36752 2.24805 6.81717 3.49204 4.93678 5.70637C3.05639 7.9207 2 10.924 2 14.0555C2 16.848 2.50385 18.6752 3.88002 20.6972L12.0268 31.7667L20.1736 20.6972C21.5497 18.6752 22.0536 16.848 22.0536 14.0555C22.0536 10.924 20.9972 7.9207 19.1168 5.70637C17.2364 3.49204 14.6861 2.24805 12.0268 2.24805V2.24805Z" stroke="#642CCA" stroke-width="2.95187" stroke-linecap="round" stroke-linejoin="round"/>
</svg>
