<svg width="44" height="30" viewBox="0 0 44 30" fill="none" xmlns="http://www.w3.org/2000/svg">
<path d="M43.079 5.04022C42.8299 4.15159 42.3446 3.34707 41.6748 2.71218C40.9861 2.05777 40.142 1.58966 39.2221 1.35202C35.7796 0.444637 21.9873 0.444637 21.9873 0.444637C16.2375 0.379219 10.4891 0.666945 4.77452 1.30619C3.85466 1.56139 3.01211 2.03996 2.32184 2.69935C1.64359 3.35193 1.15232 4.15666 0.895684 5.03839C0.2792 8.35949 -0.0203305 11.7317 0.00113136 15.1094C-0.0208658 18.4842 0.277929 21.8552 0.895684 25.1805C1.14682 26.0585 1.63626 26.8596 2.31634 27.5067C2.99642 28.1538 3.84331 28.6212 4.77452 28.8687C8.26291 29.7742 21.9873 29.7742 21.9873 29.7742C27.7445 29.8397 33.5002 29.552 39.2221 28.9127C40.142 28.675 40.9861 28.2069 41.6748 27.5525C42.3444 26.9178 42.8291 26.1131 43.0771 25.2245C43.7097 21.9047 44.0173 18.5311 43.9955 15.1516C44.0431 11.7578 43.7359 8.36833 43.079 5.03839V5.04022ZM17.6026 21.386V8.83473L29.0778 15.1113L17.6026 21.386Z" fill="white"/>
</svg>
